<svg t="1613461483842" class="icon" viewBox="0 0 1024 1024" version="1.1" xmlns="http://www.w3.org/2000/svg" p-id="2603" width="200" height="200"><path d="M511.911013 0c88.920751 0 172.466326 31.892704 235.227893 89.893401C810.054048 147.894098 844.659936 225.040656 844.659936 307.152852c0 82.112196-34.605888 159.258754-97.52103 217.259451-26.722298 24.572228-57.181623 44.537164-90.200555 59.331692a494.00417 494.00417 0 0 1 186.595358 100.950904c89.944594 78.068017 144.82257 183.77979 154.600269 297.733498 1.791725 21.03997-14.999298 39.571526-37.472648 41.312059L957.282649 1023.84284c-21.091163 0-38.906028-15.255258-40.595369-35.271386-16.791023-195.553982-194.53014-348.772063-404.776267-348.772063S123.823385 792.96628 107.134746 988.520262c-1.791725 21.091163-21.398315 36.858342-44.025242 35.169002-22.422158-1.740533-39.213181-20.169704-37.370264-41.312059 9.726507-114.056092 64.604483-219.767866 154.600269-297.733498a494.516092 494.516092 0 0 1 186.441781-101.053288 330.03574 330.03574 0 0 1-90.098169-59.229308C213.767978 466.411606 179.16209 389.265048 179.16209 307.152852c0-82.112196 34.605888-159.258754 97.521031-217.259451C339.547071 31.892704 423.092647 0 511.911013 0z m0 74.586951C372.719579 74.586951 259.482561 178.865344 259.482561 307.152852c0 128.185124 113.237018 232.565901 252.428452 232.565901S764.339465 435.44036 764.339465 307.152852c0-128.287508-113.237018-232.565901-252.428452-232.565901z" p-id="2604"></path></svg>