<svg height="16" viewBox="0 0 16 16" width="16" xmlns="http://www.w3.org/2000/svg"><g fill="none" fill-rule="evenodd"><g fill="#145dff" fill-rule="nonzero" transform="translate(0 1.142857)"><path d="m1.69130817 13.2322709 12.67919223-12.75025608h1.1612526v12.75025608z" opacity=".2"/><path d="m15.1571554 13.7142857h-14.3143108c-.46450102 0-.8428446-.389468-.8428446-.8676267v-11.97903232c0-.4781587.37834358-.86762668.8428446-.86762668h14.3143108c.464501 0 .8428446.38946798.8428446.86762668v11.97806832c0 .4791227-.3783436.8685907-.8428446.8685907zm-14.2206614-.9640296h14.127012v-11.78622646h-14.127012z"/><path d="m4.33222125 9.50436826-2.15206322-2.31367115c-.1750286-.18760312-.17336874-.48448379.00374598-.6700006l2.15206321-2.26450563.66959321.67385672-1.83459174 1.93095138 1.83833772 1.97626077zm7.30371675 0-.6761487-.66710851 1.8383377-1.97626077-1.8345917-1.93095138.6695932-.67385672 2.1520632 2.26450563c.1769974.18605772.1779338.48201482.003746.6700006zm-6.02343581-.7966741 4.1607492-4.30786287.66416151.6796409-4.16074916 4.30795927z"/></g><path d="m0 0h16v16h-16z"/></g></svg>